solid OpenSCAD_Model
  facet normal -0 0 1
    outer loop
      vertex 40 3 1.2
      vertex 42 -5 1.2
      vertex 42 3 1.2
    endloop
  endfacet
  facet normal 0 0 1
    outer loop
      vertex 42 -5 1.2
      vertex 40 3 1.2
      vertex 40 -5 1.2
    endloop
  endfacet
  facet normal 1 0 0
    outer loop
      vertex 42 -5 4
      vertex 42 -7 4
      vertex 42 -5 1.2
    endloop
  endfacet
  facet normal 1 0 0
    outer loop
      vertex 42 3 1.2
      vertex 42 5 4
      vertex 42 3 4
    endloop
  endfacet
  facet normal 1 0 0
    outer loop
      vertex 42 5 4
      vertex 42 3 1.2
      vertex 42 5 0
    endloop
  endfacet
  facet normal 1 -0 0
    outer loop
      vertex 42 -5 1.2
      vertex 42 5 0
      vertex 42 3 1.2
    endloop
  endfacet
  facet normal 1 0 0
    outer loop
      vertex 42 -5 1.2
      vertex 42 -7 0
      vertex 42 5 0
    endloop
  endfacet
  facet normal 1 0 0
    outer loop
      vertex 42 -7 0
      vertex 42 -5 1.2
      vertex 42 -7 4
    endloop
  endfacet
  facet normal 0 1 0
    outer loop
      vertex 42 5 4
      vertex 38.5 5 2
      vertex 35.75 5 3.5
    endloop
  endfacet
  facet normal 0 1 -0
    outer loop
      vertex 42 5 0
      vertex 38.5 5 2
      vertex 42 5 4
    endloop
  endfacet
  facet normal 0 1 0
    outer loop
      vertex 38.5 5 2
      vertex 42 5 0
      vertex 38.5 5 0
    endloop
  endfacet
  facet normal 0 1 -0
    outer loop
      vertex 35.75 5 3.5
      vertex 30.25 5 7.91667
      vertex 42 5 4
    endloop
  endfacet
  facet normal 0 1 0
    outer loop
      vertex 30.25 5 7.91667
      vertex 35.75 5 3.5
      vertex 33 5 4.5
    endloop
  endfacet
  facet normal 0 1 0
    outer loop
      vertex 33 5 4.5
      vertex 35.75 5 3.5
      vertex 33 5 3.5
    endloop
  endfacet
  facet normal 0 1 0
    outer loop
      vertex 30.25 5 7.91667
      vertex 33 5 4.5
      vertex 30.25 5 4.5
    endloop
  endfacet
  facet normal 0 1 0
    outer loop
      vertex 35.75 5 3.5
      vertex 38.5 5 2
      vertex 35.75 5 2
    endloop
  endfacet
  facet normal 0 0 -1
    outer loop
      vertex 5 -42 0
      vertex -7 -42 0
      vertex 5 -38.5 0
    endloop
  endfacet
  facet normal 0 0 -1
    outer loop
      vertex 17.5 -17.5 0
      vertex 38.5 -7 0
      vertex 38.5 -38.5 0
    endloop
  endfacet
  facet normal -0 0 -1
    outer loop
      vertex 38.5 -7 0
      vertex 17.5 -17.5 0
      vertex 38.5 5 0
    endloop
  endfacet
  facet normal 0 0 -1
    outer loop
      vertex 17.5 17.5 0
      vertex 38.5 5 0
      vertex 17.5 -17.5 0
    endloop
  endfacet
  facet normal 0 0 -1
    outer loop
      vertex 5 -38.5 0
      vertex 17.5 -17.5 0
      vertex 38.5 -38.5 0
    endloop
  endfacet
  facet normal 0 0 -1
    outer loop
      vertex -7 -38.5 0
      vertex 5 -38.5 0
      vertex -7 -42 0
    endloop
  endfacet
  facet normal 0 0 -1
    outer loop
      vertex -17.5 -17.5 0
      vertex 5 -38.5 0
      vertex -7 -38.5 0
    endloop
  endfacet
  facet normal 0 0 -1
    outer loop
      vertex 5 -38.5 0
      vertex -17.5 -17.5 0
      vertex 17.5 -17.5 0
    endloop
  endfacet
  facet normal 0 0 -1
    outer loop
      vertex -38.5 -5 0
      vertex -17.5 -17.5 0
      vertex -38.5 -38.5 0
    endloop
  endfacet
  facet normal 0 0 -1
    outer loop
      vertex -38.5 -38.5 0
      vertex -17.5 -17.5 0
      vertex -7 -38.5 0
    endloop
  endfacet
  facet normal 0 0 -1
    outer loop
      vertex 38.5 -7 0
      vertex 42 5 0
      vertex 42 -7 0
    endloop
  endfacet
  facet normal -0 0 -1
    outer loop
      vertex 42 5 0
      vertex 38.5 -7 0
      vertex 38.5 5 0
    endloop
  endfacet
  facet normal 0 0 -1
    outer loop
      vertex 38.5 5 0
      vertex 17.5 17.5 0
      vertex 38.5 38.5 0
    endloop
  endfacet
  facet normal 0 0 -1
    outer loop
      vertex 17.5 17.5 0
      vertex 7 38.5 0
      vertex 38.5 38.5 0
    endloop
  endfacet
  facet normal 0 0 -1
    outer loop
      vertex 7 38.5 0
      vertex -5 38.5 0
      vertex 7 42 0
    endloop
  endfacet
  facet normal 0 0 -1
    outer loop
      vertex 17.5 17.5 0
      vertex -5 38.5 0
      vertex 7 38.5 0
    endloop
  endfacet
  facet normal 0 0 -1
    outer loop
      vertex -17.5 17.5 0
      vertex -5 38.5 0
      vertex 17.5 17.5 0
    endloop
  endfacet
  facet normal 0 0 -1
    outer loop
      vertex -17.5 -17.5 0
      vertex -38.5 -5 0
      vertex -17.5 17.5 0
    endloop
  endfacet
  facet normal 0 0 -1
    outer loop
      vertex -38.5 7 0
      vertex -17.5 17.5 0
      vertex -38.5 -5 0
    endloop
  endfacet
  facet normal 0 0 -1
    outer loop
      vertex -38.5 38.5 0
      vertex -17.5 17.5 0
      vertex -38.5 7 0
    endloop
  endfacet
  facet normal 0 0 -1
    outer loop
      vertex -17.5 17.5 0
      vertex -38.5 38.5 0
      vertex -5 38.5 0
    endloop
  endfacet
  facet normal 0 0 -1
    outer loop
      vertex -42 -5 0
      vertex -38.5 7 0
      vertex -38.5 -5 0
    endloop
  endfacet
  facet normal -0 0 -1
    outer loop
      vertex -38.5 7 0
      vertex -42 -5 0
      vertex -42 7 0
    endloop
  endfacet
  facet normal -0 0 -1
    outer loop
      vertex 7 42 0
      vertex -5 38.5 0
      vertex -5 42 0
    endloop
  endfacet
  facet normal -0 0 1
    outer loop
      vertex 38 3 2.4
      vertex 40 -5 2.4
      vertex 40 3 2.4
    endloop
  endfacet
  facet normal 0 0 1
    outer loop
      vertex 40 -5 2.4
      vertex 38 3 2.4
      vertex 38 -5 2.4
    endloop
  endfacet
  facet normal 1 -0 0
    outer loop
      vertex 40 -5 2.4
      vertex 40 3 1.2
      vertex 40 3 2.4
    endloop
  endfacet
  facet normal 1 0 0
    outer loop
      vertex 40 3 1.2
      vertex 40 -5 2.4
      vertex 40 -5 1.2
    endloop
  endfacet
  facet normal -0 0 1
    outer loop
      vertex 36 3 3.6
      vertex 38 -5 3.6
      vertex 38 3 3.6
    endloop
  endfacet
  facet normal 0 0 1
    outer loop
      vertex 38 -5 3.6
      vertex 36 3 3.6
      vertex 36 -5 3.6
    endloop
  endfacet
  facet normal 1 0 0
    outer loop
      vertex 38 -5 2.66667
      vertex 38 3 3.6
      vertex 38 -5 3.6
    endloop
  endfacet
  facet normal 1 0 0
    outer loop
      vertex 38 3 3.6
      vertex 38 -5 2.66667
      vertex 38 3 2.4
    endloop
  endfacet
  facet normal 1 0 0
    outer loop
      vertex 38 3 2.4
      vertex 38 -5 2.66667
      vertex 38 -5 2.4
    endloop
  endfacet
  facet normal -0 0 1
    outer loop
      vertex 34 3 4.8
      vertex 36 -5 4.8
      vertex 36 3 4.8
    endloop
  endfacet
  facet normal 0 0 1
    outer loop
      vertex 36 -5 4.8
      vertex 34 3 4.8
      vertex 34 -5 4.8
    endloop
  endfacet
  facet normal 1 -0 0
    outer loop
      vertex 36 -5 4.8
      vertex 36 3 3.6
      vertex 36 3 4.8
    endloop
  endfacet
  facet normal 1 0 0
    outer loop
      vertex 36 3 3.6
      vertex 36 -5 4.8
      vertex 36 -5 3.6
    endloop
  endfacet
  facet normal -0 0 1
    outer loop
      vertex 32 3 6
      vertex 34 -5 6
      vertex 34 3 6
    endloop
  endfacet
  facet normal 0 0 1
    outer loop
      vertex 34 -5 6
      vertex 32 3 6
      vertex 32 -5 6
    endloop
  endfacet
  facet normal 1 -0 0
    outer loop
      vertex 34 -5 6
      vertex 34 3 4.8
      vertex 34 3 6
    endloop
  endfacet
  facet normal 1 0 0
    outer loop
      vertex 34 3 4.8
      vertex 34 -5 6
      vertex 34 -5 4.8
    endloop
  endfacet
  facet normal -0 0 1
    outer loop
      vertex 30.25 3 7.2
      vertex 32 -5 7.2
      vertex 32 3 7.2
    endloop
  endfacet
  facet normal 0 0 1
    outer loop
      vertex 32 -5 7.2
      vertex 30.25 3 7.2
      vertex 30.25 -5 7.2
    endloop
  endfacet
  facet normal 1 -0 0
    outer loop
      vertex 32 -5 7.2
      vertex 32 3 6
      vertex 32 3 7.2
    endloop
  endfacet
  facet normal 1 0 0
    outer loop
      vertex 32 3 6
      vertex 32 -5 7.2
      vertex 32 -5 6
    endloop
  endfacet
  facet normal 0.316228 0 0.948683
    outer loop
      vertex 30.25 5 7.91667
      vertex 42 3 4
      vertex 42 5 4
    endloop
  endfacet
  facet normal 0.316228 0 0.948683
    outer loop
      vertex 42 3 4
      vertex 30.25 5 7.91667
      vertex 30.25 3 7.91667
    endloop
  endfacet
  facet normal 0 -1 0
    outer loop
      vertex 32 3 7.2
      vertex 30.25 3 7.91667
      vertex 30.25 3 7.2
    endloop
  endfacet
  facet normal 0 -1 0
    outer loop
      vertex 34 3 6
      vertex 32 3 7.2
      vertex 32 3 6
    endloop
  endfacet
  facet normal 0 -1 0
    outer loop
      vertex 36 3 4.8
      vertex 34 3 6
      vertex 34 3 4.8
    endloop
  endfacet
  facet normal 0 -1 0
    outer loop
      vertex 32 3 7.2
      vertex 42 3 4
      vertex 30.25 3 7.91667
    endloop
  endfacet
  facet normal 0 -1 0
    outer loop
      vertex 34 3 6
      vertex 42 3 4
      vertex 32 3 7.2
    endloop
  endfacet
  facet normal 0 -1 0
    outer loop
      vertex 36 3 4.8
      vertex 42 3 4
      vertex 34 3 6
    endloop
  endfacet
  facet normal 0 -1 0
    outer loop
      vertex 38 3 3.6
      vertex 36 3 4.8
      vertex 36 3 3.6
    endloop
  endfacet
  facet normal 0 -1 0
    outer loop
      vertex 36 3 4.8
      vertex 38 3 3.6
      vertex 42 3 4
    endloop
  endfacet
  facet normal 0 -1 0
    outer loop
      vertex 40 3 2.4
      vertex 38 3 3.6
      vertex 38 3 2.4
    endloop
  endfacet
  facet normal 0 -1 0
    outer loop
      vertex 38 3 3.6
      vertex 40 3 2.4
      vertex 42 3 4
    endloop
  endfacet
  facet normal 0 -1 0
    outer loop
      vertex 42 3 1.2
      vertex 40 3 2.4
      vertex 40 3 1.2
    endloop
  endfacet
  facet normal 0 -1 0
    outer loop
      vertex 40 3 2.4
      vertex 42 3 1.2
      vertex 42 3 4
    endloop
  endfacet
  facet normal 5.10898e-008 1 -5.10897e-007
    outer loop
      vertex 42 -5 4
      vertex 38 -5 2.66667
      vertex 38 -5 3.6
    endloop
  endfacet
  facet normal 0 1 0
    outer loop
      vertex 42 -5 4
      vertex 32 -5 7.2
      vertex 30.25 -5 7.91667
    endloop
  endfacet
  facet normal 0 1 0
    outer loop
      vertex 42 -5 4
      vertex 34 -5 6
      vertex 32 -5 7.2
    endloop
  endfacet
  facet normal 0 1 0
    outer loop
      vertex 42 -5 4
      vertex 36 -5 4.8
      vertex 34 -5 6
    endloop
  endfacet
  facet normal 0 1 -0
    outer loop
      vertex 38 -5 3.6
      vertex 36 -5 4.8
      vertex 42 -5 4
    endloop
  endfacet
  facet normal -2.38419e-007 1 -3.97364e-007
    outer loop
      vertex 36 -5 4.8
      vertex 38 -5 3.6
      vertex 36 -5 3.6
    endloop
  endfacet
  facet normal 0 1 0
    outer loop
      vertex 30.25 -5 7.91667
      vertex 32 -5 7.2
      vertex 30.25 -5 7.2
    endloop
  endfacet
  facet normal 0 1 0
    outer loop
      vertex 32 -5 7.2
      vertex 34 -5 6
      vertex 32 -5 6
    endloop
  endfacet
  facet normal 0 1 0
    outer loop
      vertex 34 -5 6
      vertex 36 -5 4.8
      vertex 34 -5 4.8
    endloop
  endfacet
  facet normal -3.40598e-008 1 -2.55448e-007
    outer loop
      vertex 42 -5 4
      vertex 40 -5 2.4
      vertex 38 -5 2.66667
    endloop
  endfacet
  facet normal -1.02179e-007 1 -1.70299e-007
    outer loop
      vertex 42 -5 1.2
      vertex 40 -5 2.4
      vertex 42 -5 4
    endloop
  endfacet
  facet normal 0 1 0
    outer loop
      vertex 40 -5 2.4
      vertex 42 -5 1.2
      vertex 40 -5 1.2
    endloop
  endfacet
  facet normal 0 1 0
    outer loop
      vertex 38 -5 2.66667
      vertex 40 -5 2.4
      vertex 38 -5 2.4
    endloop
  endfacet
  facet normal 0 -1 1.43051e-007
    outer loop
      vertex 33 -7 4.5
      vertex 30.25 -7 7.83334
      vertex 30.25 -7 4.5
    endloop
  endfacet
  facet normal 0 -1 0
    outer loop
      vertex 35.75 -7 3.5
      vertex 33 -7 4.5
      vertex 33 -7 3.5
    endloop
  endfacet
  facet normal 7.43121e-008 -1 2.04358e-007
    outer loop
      vertex 35.75 -7 3.5
      vertex 30.25 -7 7.83334
      vertex 33 -7 4.5
    endloop
  endfacet
  facet normal 0 -1 3.17891e-007
    outer loop
      vertex 38.5 -7 2
      vertex 35.75 -7 3.5
      vertex 35.75 -7 2
    endloop
  endfacet
  facet normal -3.68466e-007 -1 -3.57629e-007
    outer loop
      vertex 38.5 -7 2
      vertex 30.25 -7 7.83334
      vertex 35.75 -7 3.5
    endloop
  endfacet
  facet normal 4.86982e-007 -1 8.52218e-007
    outer loop
      vertex 38.5 -7 2
      vertex 42 -7 0
      vertex 30.25 -7 7.83334
    endloop
  endfacet
  facet normal 0 -1 0
    outer loop
      vertex 42 -7 0
      vertex 38.5 -7 2
      vertex 38.5 -7 0
    endloop
  endfacet
  facet normal 0 -1 0
    outer loop
      vertex 30.25 -7 7.83334
      vertex 42 -7 4
      vertex 30.25 -7 7.91667
    endloop
  endfacet
  facet normal 7.77821e-008 -1 2.38419e-007
    outer loop
      vertex 42 -7 4
      vertex 30.25 -7 7.83334
      vertex 42 -7 0
    endloop
  endfacet
  facet normal 0.316228 0 0.948683
    outer loop
      vertex 30.25 -5 7.91667
      vertex 42 -7 4
      vertex 42 -5 4
    endloop
  endfacet
  facet normal 0.316228 0 0.948683
    outer loop
      vertex 42 -7 4
      vertex 30.25 -5 7.91667
      vertex 30.25 -7 7.91667
    endloop
  endfacet
  facet normal -0 0 1
    outer loop
      vertex -3 42 1.2
      vertex 5 40 1.2
      vertex 5 42 1.2
    endloop
  endfacet
  facet normal 0 0 1
    outer loop
      vertex 5 40 1.2
      vertex -3 42 1.2
      vertex -3 40 1.2
    endloop
  endfacet
  facet normal 0 1 0
    outer loop
      vertex 7 42 4
      vertex 5 42 1.2
      vertex 5 42 4
    endloop
  endfacet
  facet normal 0 1 0
    outer loop
      vertex 5 42 1.2
      vertex 7 42 0
      vertex -3 42 1.2
    endloop
  endfacet
  facet normal 0 1 0
    outer loop
      vertex 7 42 0
      vertex 5 42 1.2
      vertex 7 42 4
    endloop
  endfacet
  facet normal 0 1 -0
    outer loop
      vertex -3 42 1.2
      vertex -5 42 4
      vertex -3 42 4
    endloop
  endfacet
  facet normal 0 1 0
    outer loop
      vertex -3 42 1.2
      vertex -5 42 0
      vertex -5 42 4
    endloop
  endfacet
  facet normal 0 1 0
    outer loop
      vertex -5 42 0
      vertex -3 42 1.2
      vertex 7 42 0
    endloop
  endfacet
  facet normal -1 0 0
    outer loop
      vertex -5 38.5 2
      vertex -5 42 0
      vertex -5 38.5 0
    endloop
  endfacet
  facet normal -1 0 0
    outer loop
      vertex -5 42 0
      vertex -5 38.5 2
      vertex -5 42 4
    endloop
  endfacet
  facet normal -1 0 0
    outer loop
      vertex -5 35.75 3.5
      vertex -5 38.5 2
      vertex -5 35.75 2
    endloop
  endfacet
  facet normal -1 0 0
    outer loop
      vertex -5 38.5 2
      vertex -5 35.75 3.5
      vertex -5 42 4
    endloop
  endfacet
  facet normal -1 0 0
    outer loop
      vertex -5 33 4.5
      vertex -5 35.75 3.5
      vertex -5 33 3.5
    endloop
  endfacet
  facet normal -1 0 0
    outer loop
      vertex -5 30.25 7.91667
      vertex -5 35.75 3.5
      vertex -5 33 4.5
    endloop
  endfacet
  facet normal -1 0 0
    outer loop
      vertex -5 35.75 3.5
      vertex -5 30.25 7.91667
      vertex -5 42 4
    endloop
  endfacet
  facet normal -1 0 0
    outer loop
      vertex -5 30.25 7.91667
      vertex -5 33 4.5
      vertex -5 30.25 4.5
    endloop
  endfacet
  facet normal -0 0 1
    outer loop
      vertex -3 40 2.4
      vertex 5 38 2.4
      vertex 5 40 2.4
    endloop
  endfacet
  facet normal 0 0 1
    outer loop
      vertex 5 38 2.4
      vertex -3 40 2.4
      vertex -3 38 2.4
    endloop
  endfacet
  facet normal 0 1 -0
    outer loop
      vertex 5 40 1.2
      vertex -3 40 2.4
      vertex 5 40 2.4
    endloop
  endfacet
  facet normal 0 1 0
    outer loop
      vertex -3 40 2.4
      vertex 5 40 1.2
      vertex -3 40 1.2
    endloop
  endfacet
  facet normal -0 0 1
    outer loop
      vertex -3 38 3.6
      vertex 5 36 3.6
      vertex 5 38 3.6
    endloop
  endfacet
  facet normal 0 0 1
    outer loop
      vertex 5 36 3.6
      vertex -3 38 3.6
      vertex -3 36 3.6
    endloop
  endfacet
  facet normal 0 1 0
    outer loop
      vertex 5 38 2.66667
      vertex -3 38 3.6
      vertex 5 38 3.6
    endloop
  endfacet
  facet normal 0 1 0
    outer loop
      vertex -3 38 2.4
      vertex 5 38 2.66667
      vertex 5 38 2.4
    endloop
  endfacet
  facet normal 0 1 0
    outer loop
      vertex 5 38 2.66667
      vertex -3 38 2.4
      vertex -3 38 3.6
    endloop
  endfacet
  facet normal -0 0 1
    outer loop
      vertex -3 36 4.8
      vertex 5 34 4.8
      vertex 5 36 4.8
    endloop
  endfacet
  facet normal 0 0 1
    outer loop
      vertex 5 34 4.8
      vertex -3 36 4.8
      vertex -3 34 4.8
    endloop
  endfacet
  facet normal 0 1 0
    outer loop
      vertex 5 36 3.6
      vertex -3 36 4.8
      vertex 5 36 4.8
    endloop
  endfacet
  facet normal 0 1 0
    outer loop
      vertex -3 36 4.8
      vertex 5 36 3.6
      vertex -3 36 3.6
    endloop
  endfacet
  facet normal -0 0 1
    outer loop
      vertex -3 34 6
      vertex 5 32 6
      vertex 5 34 6
    endloop
  endfacet
  facet normal 0 0 1
    outer loop
      vertex 5 32 6
      vertex -3 34 6
      vertex -3 32 6
    endloop
  endfacet
  facet normal 0 1 -0
    outer loop
      vertex 5 34 4.8
      vertex -3 34 6
      vertex 5 34 6
    endloop
  endfacet
  facet normal 0 1 0
    outer loop
      vertex -3 34 6
      vertex 5 34 4.8
      vertex -3 34 4.8
    endloop
  endfacet
  facet normal -0 0 1
    outer loop
      vertex -3 32 7.2
      vertex 5 30.25 7.2
      vertex 5 32 7.2
    endloop
  endfacet
  facet normal 0 0 1
    outer loop
      vertex 5 30.25 7.2
      vertex -3 32 7.2
      vertex -3 30.25 7.2
    endloop
  endfacet
  facet normal 0 1 -0
    outer loop
      vertex 5 32 6
      vertex -3 32 7.2
      vertex 5 32 7.2
    endloop
  endfacet
  facet normal 0 1 0
    outer loop
      vertex -3 32 7.2
      vertex 5 32 6
      vertex -3 32 6
    endloop
  endfacet
  facet normal -0 0.316228 0.948683
    outer loop
      vertex -5 42 4
      vertex -3 30.25 7.91667
      vertex -3 42 4
    endloop
  endfacet
  facet normal 0 0.316228 0.948683
    outer loop
      vertex -3 30.25 7.91667
      vertex -5 42 4
      vertex -5 30.25 7.91667
    endloop
  endfacet
  facet normal 1 0 0
    outer loop
      vertex -3 42 4
      vertex -3 40 2.4
      vertex -3 42 1.2
    endloop
  endfacet
  facet normal 1 0 0
    outer loop
      vertex -3 42 4
      vertex -3 38 3.6
      vertex -3 40 2.4
    endloop
  endfacet
  facet normal 1 0 0
    outer loop
      vertex -3 42 4
      vertex -3 36 4.8
      vertex -3 38 3.6
    endloop
  endfacet
  facet normal 1 0 0
    outer loop
      vertex -3 42 4
      vertex -3 34 6
      vertex -3 36 4.8
    endloop
  endfacet
  facet normal 1 0 0
    outer loop
      vertex -3 42 4
      vertex -3 32 7.2
      vertex -3 34 6
    endloop
  endfacet
  facet normal 1 0 0
    outer loop
      vertex -3 30.25 7.91667
      vertex -3 32 7.2
      vertex -3 42 4
    endloop
  endfacet
  facet normal 1 0 0
    outer loop
      vertex -3 32 7.2
      vertex -3 30.25 7.91667
      vertex -3 30.25 7.2
    endloop
  endfacet
  facet normal 1 0 0
    outer loop
      vertex -3 42 1.2
      vertex -3 40 2.4
      vertex -3 40 1.2
    endloop
  endfacet
  facet normal 1 0 0
    outer loop
      vertex -3 40 2.4
      vertex -3 38 3.6
      vertex -3 38 2.4
    endloop
  endfacet
  facet normal 1 0 0
    outer loop
      vertex -3 38 3.6
      vertex -3 36 4.8
      vertex -3 36 3.6
    endloop
  endfacet
  facet normal 1 0 0
    outer loop
      vertex -3 36 4.8
      vertex -3 34 6
      vertex -3 34 4.8
    endloop
  endfacet
  facet normal 1 0 0
    outer loop
      vertex -3 34 6
      vertex -3 32 7.2
      vertex -3 32 6
    endloop
  endfacet
  facet normal -1 5.10898e-008 -5.10897e-007
    outer loop
      vertex 5 38 3.6
      vertex 5 42 4
      vertex 5 38 2.66667
    endloop
  endfacet
  facet normal -1 -2.38419e-007 -3.97364e-007
    outer loop
      vertex 5 36 4.8
      vertex 5 38 3.6
      vertex 5 36 3.6
    endloop
  endfacet
  facet normal -1 0 0
    outer loop
      vertex 5 38 3.6
      vertex 5 36 4.8
      vertex 5 42 4
    endloop
  endfacet
  facet normal -1 0 0
    outer loop
      vertex 5 34 6
      vertex 5 36 4.8
      vertex 5 34 4.8
    endloop
  endfacet
  facet normal -1 0 0
    outer loop
      vertex 5 34 6
      vertex 5 42 4
      vertex 5 36 4.8
    endloop
  endfacet
  facet normal -1 0 0
    outer loop
      vertex 5 32 7.2
      vertex 5 34 6
      vertex 5 32 6
    endloop
  endfacet
  facet normal -1 0 0
    outer loop
      vertex 5 32 7.2
      vertex 5 42 4
      vertex 5 34 6
    endloop
  endfacet
  facet normal -1 0 0
    outer loop
      vertex 5 32 7.2
      vertex 5 30.25 7.91667
      vertex 5 42 4
    endloop
  endfacet
  facet normal -1 0 0
    outer loop
      vertex 5 30.25 7.91667
      vertex 5 32 7.2
      vertex 5 30.25 7.2
    endloop
  endfacet
  facet normal -1 0 0
    outer loop
      vertex 5 40 2.4
      vertex 5 42 1.2
      vertex 5 40 1.2
    endloop
  endfacet
  facet normal -1 -1.02179e-007 -1.70299e-007
    outer loop
      vertex 5 42 1.2
      vertex 5 40 2.4
      vertex 5 42 4
    endloop
  endfacet
  facet normal -1 0 0
    outer loop
      vertex 5 38 2.66667
      vertex 5 40 2.4
      vertex 5 38 2.4
    endloop
  endfacet
  facet normal -1 -3.40598e-008 -2.55448e-007
    outer loop
      vertex 5 40 2.4
      vertex 5 38 2.66667
      vertex 5 42 4
    endloop
  endfacet
  facet normal 1 4.86982e-007 8.52218e-007
    outer loop
      vertex 7 30.25 7.83334
      vertex 7 38.5 2
      vertex 7 42 0
    endloop
  endfacet
  facet normal 1 -3.68466e-007 -3.57629e-007
    outer loop
      vertex 7 30.25 7.83334
      vertex 7 35.75 3.5
      vertex 7 38.5 2
    endloop
  endfacet
  facet normal 1 7.43121e-008 2.04358e-007
    outer loop
      vertex 7 30.25 7.83334
      vertex 7 33 4.5
      vertex 7 35.75 3.5
    endloop
  endfacet
  facet normal 1 0 1.43051e-007
    outer loop
      vertex 7 33 4.5
      vertex 7 30.25 7.83334
      vertex 7 30.25 4.5
    endloop
  endfacet
  facet normal 1 0 0
    outer loop
      vertex 7 42 0
      vertex 7 38.5 2
      vertex 7 38.5 0
    endloop
  endfacet
  facet normal 1 0 3.17891e-007
    outer loop
      vertex 7 38.5 2
      vertex 7 35.75 3.5
      vertex 7 35.75 2
    endloop
  endfacet
  facet normal 1 0 0
    outer loop
      vertex 7 35.75 3.5
      vertex 7 33 4.5
      vertex 7 33 3.5
    endloop
  endfacet
  facet normal 1 -0 0
    outer loop
      vertex 7 30.25 7.83334
      vertex 7 42 4
      vertex 7 30.25 7.91667
    endloop
  endfacet
  facet normal 1 7.77821e-008 2.38419e-007
    outer loop
      vertex 7 42 4
      vertex 7 30.25 7.83334
      vertex 7 42 0
    endloop
  endfacet
  facet normal -0 0.316228 0.948683
    outer loop
      vertex 5 42 4
      vertex 7 30.25 7.91667
      vertex 7 42 4
    endloop
  endfacet
  facet normal 0 0.316228 0.948683
    outer loop
      vertex 7 30.25 7.91667
      vertex 5 42 4
      vertex 5 30.25 7.91667
    endloop
  endfacet
  facet normal -0 0 1
    outer loop
      vertex -5 -40 1.2
      vertex 3 -42 1.2
      vertex 3 -40 1.2
    endloop
  endfacet
  facet normal 0 0 1
    outer loop
      vertex 3 -42 1.2
      vertex -5 -40 1.2
      vertex -5 -42 1.2
    endloop
  endfacet
  facet normal 0 -1 0
    outer loop
      vertex -7 -42 4
      vertex -5 -42 1.2
      vertex -5 -42 4
    endloop
  endfacet
  facet normal 0 -1 -0
    outer loop
      vertex -5 -42 1.2
      vertex -7 -42 0
      vertex 3 -42 1.2
    endloop
  endfacet
  facet normal 0 -1 0
    outer loop
      vertex -7 -42 0
      vertex -5 -42 1.2
      vertex -7 -42 4
    endloop
  endfacet
  facet normal 0 -1 0
    outer loop
      vertex 3 -42 1.2
      vertex 5 -42 4
      vertex 3 -42 4
    endloop
  endfacet
  facet normal 0 -1 0
    outer loop
      vertex 3 -42 1.2
      vertex 5 -42 0
      vertex 5 -42 4
    endloop
  endfacet
  facet normal 0 -1 0
    outer loop
      vertex 5 -42 0
      vertex 3 -42 1.2
      vertex -7 -42 0
    endloop
  endfacet
  facet normal 1 0 0
    outer loop
      vertex 5 -30.25 7.91667
      vertex 5 -33 4.5
      vertex 5 -30.25 4.5
    endloop
  endfacet
  facet normal 1 0 0
    outer loop
      vertex 5 -33 4.5
      vertex 5 -35.75 3.5
      vertex 5 -33 3.5
    endloop
  endfacet
  facet normal 1 0 0
    outer loop
      vertex 5 -30.25 7.91667
      vertex 5 -35.75 3.5
      vertex 5 -33 4.5
    endloop
  endfacet
  facet normal 1 0 0
    outer loop
      vertex 5 -35.75 3.5
      vertex 5 -38.5 2
      vertex 5 -35.75 2
    endloop
  endfacet
  facet normal 1 -0 0
    outer loop
      vertex 5 -42 4
      vertex 5 -35.75 3.5
      vertex 5 -30.25 7.91667
    endloop
  endfacet
  facet normal 1 0 0
    outer loop
      vertex 5 -35.75 3.5
      vertex 5 -42 4
      vertex 5 -38.5 2
    endloop
  endfacet
  facet normal 1 0 0
    outer loop
      vertex 5 -42 0
      vertex 5 -38.5 2
      vertex 5 -42 4
    endloop
  endfacet
  facet normal 1 0 0
    outer loop
      vertex 5 -38.5 2
      vertex 5 -42 0
      vertex 5 -38.5 0
    endloop
  endfacet
  facet normal -0 0 1
    outer loop
      vertex -5 -38 2.4
      vertex 3 -40 2.4
      vertex 3 -38 2.4
    endloop
  endfacet
  facet normal 0 0 1
    outer loop
      vertex 3 -40 2.4
      vertex -5 -38 2.4
      vertex -5 -40 2.4
    endloop
  endfacet
  facet normal 0 -1 0
    outer loop
      vertex -5 -40 1.2
      vertex 3 -40 2.4
      vertex -5 -40 2.4
    endloop
  endfacet
  facet normal 0 -1 -0
    outer loop
      vertex 3 -40 2.4
      vertex -5 -40 1.2
      vertex 3 -40 1.2
    endloop
  endfacet
  facet normal 0 0 1
    outer loop
      vertex 3 -36 3.6
      vertex -5 -38 3.6
      vertex 3 -38 3.6
    endloop
  endfacet
  facet normal 0 -0 1
    outer loop
      vertex -5 -38 3.6
      vertex 3 -36 3.6
      vertex -5 -36 3.6
    endloop
  endfacet
  facet normal 0 -1 0
    outer loop
      vertex -5 -38 2.66667
      vertex 3 -38 3.6
      vertex -5 -38 3.6
    endloop
  endfacet
  facet normal 0 -1 0
    outer loop
      vertex 3 -38 2.4
      vertex -5 -38 2.66667
      vertex -5 -38 2.4
    endloop
  endfacet
  facet normal 0 -1 0
    outer loop
      vertex -5 -38 2.66667
      vertex 3 -38 2.4
      vertex 3 -38 3.6
    endloop
  endfacet
  facet normal -0 0 1
    outer loop
      vertex -5 -34 4.8
      vertex 3 -36 4.8
      vertex 3 -34 4.8
    endloop
  endfacet
  facet normal 0 0 1
    outer loop
      vertex 3 -36 4.8
      vertex -5 -34 4.8
      vertex -5 -36 4.8
    endloop
  endfacet
  facet normal 0 -1 0
    outer loop
      vertex -5 -36 3.6
      vertex 3 -36 4.8
      vertex -5 -36 4.8
    endloop
  endfacet
  facet normal 0 -1 -0
    outer loop
      vertex 3 -36 4.8
      vertex -5 -36 3.6
      vertex 3 -36 3.6
    endloop
  endfacet
  facet normal -0 0 1
    outer loop
      vertex -5 -32 6
      vertex 3 -34 6
      vertex 3 -32 6
    endloop
  endfacet
  facet normal 0 0 1
    outer loop
      vertex 3 -34 6
      vertex -5 -32 6
      vertex -5 -34 6
    endloop
  endfacet
  facet normal 0 -1 0
    outer loop
      vertex -5 -34 4.8
      vertex 3 -34 6
      vertex -5 -34 6
    endloop
  endfacet
  facet normal 0 -1 -0
    outer loop
      vertex 3 -34 6
      vertex -5 -34 4.8
      vertex 3 -34 4.8
    endloop
  endfacet
  facet normal -0 0 1
    outer loop
      vertex -5 -30.25 7.2
      vertex 3 -32 7.2
      vertex 3 -30.25 7.2
    endloop
  endfacet
  facet normal 0 0 1
    outer loop
      vertex 3 -32 7.2
      vertex -5 -30.25 7.2
      vertex -5 -32 7.2
    endloop
  endfacet
  facet normal 0 -1 0
    outer loop
      vertex -5 -32 6
      vertex 3 -32 7.2
      vertex -5 -32 7.2
    endloop
  endfacet
  facet normal 0 -1 -0
    outer loop
      vertex 3 -32 7.2
      vertex -5 -32 6
      vertex 3 -32 6
    endloop
  endfacet
  facet normal 0 -0.316228 0.948683
    outer loop
      vertex 3 -30.25 7.91667
      vertex 5 -42 4
      vertex 5 -30.25 7.91667
    endloop
  endfacet
  facet normal 0 -0.316228 0.948683
    outer loop
      vertex 5 -42 4
      vertex 3 -30.25 7.91667
      vertex 3 -42 4
    endloop
  endfacet
  facet normal -1 0 0
    outer loop
      vertex 3 -40 1.2
      vertex 3 -42 1.2
      vertex 3 -40 2.4
    endloop
  endfacet
  facet normal -1 0 0
    outer loop
      vertex 3 -38 2.4
      vertex 3 -40 2.4
      vertex 3 -38 3.6
    endloop
  endfacet
  facet normal -1 0 0
    outer loop
      vertex 3 -36 3.6
      vertex 3 -38 3.6
      vertex 3 -36 4.8
    endloop
  endfacet
  facet normal -1 0 0
    outer loop
      vertex 3 -34 4.8
      vertex 3 -36 4.8
      vertex 3 -34 6
    endloop
  endfacet
  facet normal -1 0 0
    outer loop
      vertex 3 -32 6
      vertex 3 -34 6
      vertex 3 -32 7.2
    endloop
  endfacet
  facet normal -1 0 0
    outer loop
      vertex 3 -32 7.2
      vertex 3 -30.25 7.91667
      vertex 3 -30.25 7.2
    endloop
  endfacet
  facet normal -1 0 0
    outer loop
      vertex 3 -42 4
      vertex 3 -36 4.8
      vertex 3 -38 3.6
    endloop
  endfacet
  facet normal -1 0 0
    outer loop
      vertex 3 -42 4
      vertex 3 -38 3.6
      vertex 3 -40 2.4
    endloop
  endfacet
  facet normal -1 0 0
    outer loop
      vertex 3 -42 4
      vertex 3 -40 2.4
      vertex 3 -42 1.2
    endloop
  endfacet
  facet normal -1 -0 0
    outer loop
      vertex 3 -32 7.2
      vertex 3 -42 4
      vertex 3 -30.25 7.91667
    endloop
  endfacet
  facet normal -1 -0 0
    outer loop
      vertex 3 -34 6
      vertex 3 -42 4
      vertex 3 -32 7.2
    endloop
  endfacet
  facet normal -1 -0 0
    outer loop
      vertex 3 -36 4.8
      vertex 3 -42 4
      vertex 3 -34 6
    endloop
  endfacet
  facet normal 1 0 0
    outer loop
      vertex -5 -30.25 7.91667
      vertex -5 -32 7.2
      vertex -5 -30.25 7.2
    endloop
  endfacet
  facet normal 1 0 0
    outer loop
      vertex -5 -32 7.2
      vertex -5 -34 6
      vertex -5 -32 6
    endloop
  endfacet
  facet normal 1 0 0
    outer loop
      vertex -5 -34 6
      vertex -5 -36 4.8
      vertex -5 -34 4.8
    endloop
  endfacet
  facet normal 1 2.38419e-007 -3.97364e-007
    outer loop
      vertex -5 -36 4.8
      vertex -5 -38 3.6
      vertex -5 -36 3.6
    endloop
  endfacet
  facet normal 1 0 0
    outer loop
      vertex -5 -42 4
      vertex -5 -36 4.8
      vertex -5 -34 6
    endloop
  endfacet
  facet normal 1 -5.10898e-008 -5.10897e-007
    outer loop
      vertex -5 -38 3.6
      vertex -5 -42 4
      vertex -5 -38 2.66667
    endloop
  endfacet
  facet normal 1 0 0
    outer loop
      vertex -5 -36 4.8
      vertex -5 -42 4
      vertex -5 -38 3.6
    endloop
  endfacet
  facet normal 1 0 0
    outer loop
      vertex -5 -32 7.2
      vertex -5 -42 4
      vertex -5 -34 6
    endloop
  endfacet
  facet normal 1 0 0
    outer loop
      vertex -5 -42 4
      vertex -5 -32 7.2
      vertex -5 -30.25 7.91667
    endloop
  endfacet
  facet normal 1 0 0
    outer loop
      vertex -5 -38 2.66667
      vertex -5 -40 2.4
      vertex -5 -38 2.4
    endloop
  endfacet
  facet normal 1 3.40598e-008 -2.55448e-007
    outer loop
      vertex -5 -42 4
      vertex -5 -40 2.4
      vertex -5 -38 2.66667
    endloop
  endfacet
  facet normal 1 1.02179e-007 -1.70299e-007
    outer loop
      vertex -5 -42 1.2
      vertex -5 -40 2.4
      vertex -5 -42 4
    endloop
  endfacet
  facet normal 1 0 0
    outer loop
      vertex -5 -40 2.4
      vertex -5 -42 1.2
      vertex -5 -40 1.2
    endloop
  endfacet
  facet normal -1 0 0
    outer loop
      vertex -7 -35.75 2
      vertex -7 -38.5 2
      vertex -7 -35.75 3.5
    endloop
  endfacet
  facet normal -1 0 0
    outer loop
      vertex -7 -33 3.5
      vertex -7 -35.75 3.5
      vertex -7 -33 4.5
    endloop
  endfacet
  facet normal -1 0 1.43051e-007
    outer loop
      vertex -7 -33 4.5
      vertex -7 -30.25 7.83333
      vertex -7 -30.25 4.5
    endloop
  endfacet
  facet normal -1 -7.43123e-008 2.04359e-007
    outer loop
      vertex -7 -35.75 3.5
      vertex -7 -30.25 7.83333
      vertex -7 -33 4.5
    endloop
  endfacet
  facet normal -1 -1.9507e-007 3.57628e-007
    outer loop
      vertex -7 -38.5 2
      vertex -7 -30.25 7.83333
      vertex -7 -35.75 3.5
    endloop
  endfacet
  facet normal -1 4.66692e-007 -5.78292e-007
    outer loop
      vertex -7 -30.25 7.83333
      vertex -7 -38.5 2
      vertex -7 -42 0
    endloop
  endfacet
  facet normal -1 0 2.38419e-007
    outer loop
      vertex -7 -38.5 0
      vertex -7 -42 0
      vertex -7 -38.5 2
    endloop
  endfacet
  facet normal -1 -7.7782e-008 2.38419e-007
    outer loop
      vertex -7 -42 4
      vertex -7 -30.25 7.83333
      vertex -7 -42 0
    endloop
  endfacet
  facet normal -1 -0 0
    outer loop
      vertex -7 -30.25 7.83333
      vertex -7 -42 4
      vertex -7 -30.25 7.91667
    endloop
  endfacet
  facet normal 0 -0.316228 0.948683
    outer loop
      vertex -7 -30.25 7.91667
      vertex -5 -42 4
      vertex -5 -30.25 7.91667
    endloop
  endfacet
  facet normal 0 -0.316228 0.948683
    outer loop
      vertex -5 -42 4
      vertex -7 -30.25 7.91667
      vertex -7 -42 4
    endloop
  endfacet
  facet normal -0 0 1
    outer loop
      vertex -42 5 1.2
      vertex -40 -3 1.2
      vertex -40 5 1.2
    endloop
  endfacet
  facet normal 0 0 1
    outer loop
      vertex -40 -3 1.2
      vertex -42 5 1.2
      vertex -42 -3 1.2
    endloop
  endfacet
  facet normal -1 0 0
    outer loop
      vertex -42 7 0
      vertex -42 5 1.2
      vertex -42 7 4
    endloop
  endfacet
  facet normal -1 0 0
    outer loop
      vertex -42 7 0
      vertex -42 -3 1.2
      vertex -42 5 1.2
    endloop
  endfacet
  facet normal -1 0 0
    outer loop
      vertex -42 -5 0
      vertex -42 -3 1.2
      vertex -42 7 0
    endloop
  endfacet
  facet normal -1 0 0
    outer loop
      vertex -42 -5 4
      vertex -42 -3 1.2
      vertex -42 -5 0
    endloop
  endfacet
  facet normal -1 0 0
    outer loop
      vertex -42 -3 1.2
      vertex -42 -5 4
      vertex -42 -3 4
    endloop
  endfacet
  facet normal -1 -0 0
    outer loop
      vertex -42 7 4
      vertex -42 5 1.2
      vertex -42 5 4
    endloop
  endfacet
  facet normal 0 -1 0
    outer loop
      vertex -42 -5 4
      vertex -38.5 -5 2
      vertex -35.75 -5 3.5
    endloop
  endfacet
  facet normal 0 -1 0
    outer loop
      vertex -42 -5 0
      vertex -38.5 -5 2
      vertex -42 -5 4
    endloop
  endfacet
  facet normal 0 -1 -0
    outer loop
      vertex -38.5 -5 2
      vertex -42 -5 0
      vertex -38.5 -5 0
    endloop
  endfacet
  facet normal 0 -1 0
    outer loop
      vertex -35.75 -5 3.5
      vertex -30.25 -5 7.91667
      vertex -42 -5 4
    endloop
  endfacet
  facet normal 0 -1 0
    outer loop
      vertex -30.25 -5 7.91667
      vertex -35.75 -5 3.5
      vertex -33 -5 4.5
    endloop
  endfacet
  facet normal 0 -1 -0
    outer loop
      vertex -33 -5 4.5
      vertex -35.75 -5 3.5
      vertex -33 -5 3.5
    endloop
  endfacet
  facet normal 0 -1 -0
    outer loop
      vertex -30.25 -5 7.91667
      vertex -33 -5 4.5
      vertex -30.25 -5 4.5
    endloop
  endfacet
  facet normal 0 -1 -0
    outer loop
      vertex -35.75 -5 3.5
      vertex -38.5 -5 2
      vertex -35.75 -5 2
    endloop
  endfacet
  facet normal -0 0 1
    outer loop
      vertex -40 5 2.4
      vertex -38 -3 2.4
      vertex -38 5 2.4
    endloop
  endfacet
  facet normal 0 0 1
    outer loop
      vertex -38 -3 2.4
      vertex -40 5 2.4
      vertex -40 -3 2.4
    endloop
  endfacet
  facet normal -1 0 0
    outer loop
      vertex -40 -3 1.2
      vertex -40 5 2.4
      vertex -40 5 1.2
    endloop
  endfacet
  facet normal -1 -0 0
    outer loop
      vertex -40 5 2.4
      vertex -40 -3 1.2
      vertex -40 -3 2.4
    endloop
  endfacet
  facet normal -0 0 1
    outer loop
      vertex -38 5 3.6
      vertex -36 -3 3.6
      vertex -36 5 3.6
    endloop
  endfacet
  facet normal 0 0 1
    outer loop
      vertex -36 -3 3.6
      vertex -38 5 3.6
      vertex -38 -3 3.6
    endloop
  endfacet
  facet normal -1 0 0
    outer loop
      vertex -38 -3 2.4
      vertex -38 5 2.66667
      vertex -38 5 2.4
    endloop
  endfacet
  facet normal -1 0 0
    outer loop
      vertex -38 -3 3.6
      vertex -38 5 2.66667
      vertex -38 -3 2.4
    endloop
  endfacet
  facet normal -1 0 0
    outer loop
      vertex -38 5 2.66667
      vertex -38 -3 3.6
      vertex -38 5 3.6
    endloop
  endfacet
  facet normal -0 0 1
    outer loop
      vertex -36 5 4.8
      vertex -34 -3 4.8
      vertex -34 5 4.8
    endloop
  endfacet
  facet normal 0 0 1
    outer loop
      vertex -34 -3 4.8
      vertex -36 5 4.8
      vertex -36 -3 4.8
    endloop
  endfacet
  facet normal -1 0 0
    outer loop
      vertex -36 -3 3.6
      vertex -36 5 4.8
      vertex -36 5 3.6
    endloop
  endfacet
  facet normal -1 -0 0
    outer loop
      vertex -36 5 4.8
      vertex -36 -3 3.6
      vertex -36 -3 4.8
    endloop
  endfacet
  facet normal -0 0 1
    outer loop
      vertex -34 5 6
      vertex -32 -3 6
      vertex -32 5 6
    endloop
  endfacet
  facet normal 0 0 1
    outer loop
      vertex -32 -3 6
      vertex -34 5 6
      vertex -34 -3 6
    endloop
  endfacet
  facet normal -1 0 0
    outer loop
      vertex -34 -3 4.8
      vertex -34 5 6
      vertex -34 5 4.8
    endloop
  endfacet
  facet normal -1 -0 0
    outer loop
      vertex -34 5 6
      vertex -34 -3 4.8
      vertex -34 -3 6
    endloop
  endfacet
  facet normal -0 0 1
    outer loop
      vertex -32 5 7.2
      vertex -30.25 -3 7.2
      vertex -30.25 5 7.2
    endloop
  endfacet
  facet normal 0 0 1
    outer loop
      vertex -30.25 -3 7.2
      vertex -32 5 7.2
      vertex -32 -3 7.2
    endloop
  endfacet
  facet normal -1 0 0
    outer loop
      vertex -32 -3 6
      vertex -32 5 7.2
      vertex -32 5 6
    endloop
  endfacet
  facet normal -1 -0 0
    outer loop
      vertex -32 5 7.2
      vertex -32 -3 6
      vertex -32 -3 7.2
    endloop
  endfacet
  facet normal -0.316228 0 0.948683
    outer loop
      vertex -42 -3 4
      vertex -30.25 -5 7.91667
      vertex -30.25 -3 7.91667
    endloop
  endfacet
  facet normal -0.316228 0 0.948683
    outer loop
      vertex -30.25 -5 7.91667
      vertex -42 -3 4
      vertex -42 -5 4
    endloop
  endfacet
  facet normal 0 1 0
    outer loop
      vertex -32 -3 7.2
      vertex -30.25 -3 7.91667
      vertex -30.25 -3 7.2
    endloop
  endfacet
  facet normal 0 1 0
    outer loop
      vertex -34 -3 6
      vertex -32 -3 7.2
      vertex -32 -3 6
    endloop
  endfacet
  facet normal 0 1 0
    outer loop
      vertex -36 -3 4.8
      vertex -34 -3 6
      vertex -34 -3 4.8
    endloop
  endfacet
  facet normal 0 1 -0
    outer loop
      vertex -32 -3 7.2
      vertex -42 -3 4
      vertex -30.25 -3 7.91667
    endloop
  endfacet
  facet normal 0 1 -0
    outer loop
      vertex -34 -3 6
      vertex -42 -3 4
      vertex -32 -3 7.2
    endloop
  endfacet
  facet normal 0 1 -0
    outer loop
      vertex -36 -3 4.8
      vertex -42 -3 4
      vertex -34 -3 6
    endloop
  endfacet
  facet normal 0 1 0
    outer loop
      vertex -38 -3 3.6
      vertex -36 -3 4.8
      vertex -36 -3 3.6
    endloop
  endfacet
  facet normal 0 1 0
    outer loop
      vertex -36 -3 4.8
      vertex -38 -3 3.6
      vertex -42 -3 4
    endloop
  endfacet
  facet normal 0 1 0
    outer loop
      vertex -40 -3 2.4
      vertex -38 -3 3.6
      vertex -38 -3 2.4
    endloop
  endfacet
  facet normal 0 1 0
    outer loop
      vertex -38 -3 3.6
      vertex -40 -3 2.4
      vertex -42 -3 4
    endloop
  endfacet
  facet normal 0 1 0
    outer loop
      vertex -42 -3 1.2
      vertex -40 -3 2.4
      vertex -40 -3 1.2
    endloop
  endfacet
  facet normal 0 1 0
    outer loop
      vertex -40 -3 2.4
      vertex -42 -3 1.2
      vertex -42 -3 4
    endloop
  endfacet
  facet normal -5.10898e-008 -1 -5.10897e-007
    outer loop
      vertex -42 5 4
      vertex -38 5 2.66667
      vertex -38 5 3.6
    endloop
  endfacet
  facet normal 0 -1 0
    outer loop
      vertex -42 5 4
      vertex -32 5 7.2
      vertex -30.25 5 7.91667
    endloop
  endfacet
  facet normal 0 -1 0
    outer loop
      vertex -42 5 4
      vertex -34 5 6
      vertex -32 5 7.2
    endloop
  endfacet
  facet normal 0 -1 0
    outer loop
      vertex -42 5 4
      vertex -36 5 4.8
      vertex -34 5 6
    endloop
  endfacet
  facet normal 0 -1 0
    outer loop
      vertex -38 5 3.6
      vertex -36 5 4.8
      vertex -42 5 4
    endloop
  endfacet
  facet normal 2.38419e-007 -1 -3.97364e-007
    outer loop
      vertex -36 5 4.8
      vertex -38 5 3.6
      vertex -36 5 3.6
    endloop
  endfacet
  facet normal 0 -1 -0
    outer loop
      vertex -30.25 5 7.91667
      vertex -32 5 7.2
      vertex -30.25 5 7.2
    endloop
  endfacet
  facet normal 0 -1 -0
    outer loop
      vertex -32 5 7.2
      vertex -34 5 6
      vertex -32 5 6
    endloop
  endfacet
  facet normal 0 -1 -0
    outer loop
      vertex -34 5 6
      vertex -36 5 4.8
      vertex -34 5 4.8
    endloop
  endfacet
  facet normal 3.40598e-008 -1 -2.55448e-007
    outer loop
      vertex -42 5 4
      vertex -40 5 2.4
      vertex -38 5 2.66667
    endloop
  endfacet
  facet normal 1.02179e-007 -1 -1.70299e-007
    outer loop
      vertex -42 5 1.2
      vertex -40 5 2.4
      vertex -42 5 4
    endloop
  endfacet
  facet normal 0 -1 -0
    outer loop
      vertex -40 5 2.4
      vertex -42 5 1.2
      vertex -40 5 1.2
    endloop
  endfacet
  facet normal 0 -1 -0
    outer loop
      vertex -38 5 2.66667
      vertex -40 5 2.4
      vertex -38 5 2.4
    endloop
  endfacet
  facet normal -0 1 1.43051e-007
    outer loop
      vertex -33 7 4.5
      vertex -30.25 7 7.83333
      vertex -30.25 7 4.5
    endloop
  endfacet
  facet normal 0 1 0
    outer loop
      vertex -35.75 7 3.5
      vertex -33 7 4.5
      vertex -33 7 3.5
    endloop
  endfacet
  facet normal -7.43123e-008 1 2.04359e-007
    outer loop
      vertex -35.75 7 3.5
      vertex -30.25 7 7.83333
      vertex -33 7 4.5
    endloop
  endfacet
  facet normal -0 1 3.17891e-007
    outer loop
      vertex -38.5 7 2
      vertex -35.75 7 3.5
      vertex -35.75 7 2
    endloop
  endfacet
  facet normal 3.68465e-007 1 -3.57628e-007
    outer loop
      vertex -38.5 7 2
      vertex -30.25 7 7.83333
      vertex -35.75 7 3.5
    endloop
  endfacet
  facet normal -4.86983e-007 1 8.52219e-007
    outer loop
      vertex -38.5 7 2
      vertex -42 7 0
      vertex -30.25 7 7.83333
    endloop
  endfacet
  facet normal 0 1 0
    outer loop
      vertex -42 7 0
      vertex -38.5 7 2
      vertex -38.5 7 0
    endloop
  endfacet
  facet normal 0 1 -0
    outer loop
      vertex -30.25 7 7.83333
      vertex -42 7 4
      vertex -30.25 7 7.91667
    endloop
  endfacet
  facet normal -7.7782e-008 1 2.38419e-007
    outer loop
      vertex -42 7 4
      vertex -30.25 7 7.83333
      vertex -42 7 0
    endloop
  endfacet
  facet normal -0.316228 0 0.948683
    outer loop
      vertex -42 7 4
      vertex -30.25 5 7.91667
      vertex -30.25 7 7.91667
    endloop
  endfacet
  facet normal -0.316228 0 0.948683
    outer loop
      vertex -30.25 5 7.91667
      vertex -42 7 4
      vertex -42 5 4
    endloop
  endfacet
  facet normal 0 0 1
    outer loop
      vertex -5 38.5 2
      vertex -35.75 35.75 2
      vertex -5 35.75 2
    endloop
  endfacet
  facet normal -0 0 1
    outer loop
      vertex -38.5 38.5 2
      vertex -35.75 35.75 2
      vertex -5 38.5 2
    endloop
  endfacet
  facet normal 0 0 1
    outer loop
      vertex -38.5 7 2
      vertex -35.75 35.75 2
      vertex -38.5 38.5 2
    endloop
  endfacet
  facet normal 0 0 1
    outer loop
      vertex -35.75 35.75 2
      vertex -38.5 7 2
      vertex -35.75 7 2
    endloop
  endfacet
  facet normal 0 0 1
    outer loop
      vertex 35.75 -35.75 2
      vertex 38.5 -7 2
      vertex 35.75 -7 2
    endloop
  endfacet
  facet normal 0 0 1
    outer loop
      vertex 38.5 -7 2
      vertex 35.75 -35.75 2
      vertex 38.5 -38.5 2
    endloop
  endfacet
  facet normal 0 0 1
    outer loop
      vertex 5 -38.5 2
      vertex 35.75 -35.75 2
      vertex 5 -35.75 2
    endloop
  endfacet
  facet normal 0 0 1
    outer loop
      vertex 35.75 -35.75 2
      vertex 5 -38.5 2
      vertex 38.5 -38.5 2
    endloop
  endfacet
  facet normal 0 0 1
    outer loop
      vertex 38.5 38.5 2
      vertex 35.75 35.75 2
      vertex 38.5 5 2
    endloop
  endfacet
  facet normal -0 0 1
    outer loop
      vertex 7 38.5 2
      vertex 35.75 35.75 2
      vertex 38.5 38.5 2
    endloop
  endfacet
  facet normal 0 0 1
    outer loop
      vertex 35.75 35.75 2
      vertex 7 38.5 2
      vertex 7 35.75 2
    endloop
  endfacet
  facet normal 0 0 1
    outer loop
      vertex 38.5 5 2
      vertex 35.75 35.75 2
      vertex 35.75 5 2
    endloop
  endfacet
  facet normal 0 0 1
    outer loop
      vertex -35.75 -5 2
      vertex -38.5 -5 2
      vertex -35.75 -35.75 2
    endloop
  endfacet
  facet normal -0 0 1
    outer loop
      vertex -35.75 -35.75 2
      vertex -7 -38.5 2
      vertex -7 -35.75 2
    endloop
  endfacet
  facet normal 0 0 1
    outer loop
      vertex -35.75 -35.75 2
      vertex -38.5 -38.5 2
      vertex -7 -38.5 2
    endloop
  endfacet
  facet normal 0 0 1
    outer loop
      vertex -38.5 -38.5 2
      vertex -35.75 -35.75 2
      vertex -38.5 -5 2
    endloop
  endfacet
  facet normal 0 1 -0
    outer loop
      vertex -5 38.5 0
      vertex -38.5 38.5 2
      vertex -5 38.5 2
    endloop
  endfacet
  facet normal 0 1 0
    outer loop
      vertex -38.5 38.5 2
      vertex -5 38.5 0
      vertex -38.5 38.5 0
    endloop
  endfacet
  facet normal 0 1 -0
    outer loop
      vertex 38.5 38.5 0
      vertex 7 38.5 2
      vertex 38.5 38.5 2
    endloop
  endfacet
  facet normal 0 1 0
    outer loop
      vertex 7 38.5 2
      vertex 38.5 38.5 0
      vertex 7 38.5 0
    endloop
  endfacet
  facet normal -1 0 0
    outer loop
      vertex -38.5 7 0
      vertex -38.5 38.5 2
      vertex -38.5 38.5 0
    endloop
  endfacet
  facet normal -1 -0 0
    outer loop
      vertex -38.5 38.5 2
      vertex -38.5 7 0
      vertex -38.5 7 2
    endloop
  endfacet
  facet normal -1 0 0
    outer loop
      vertex -38.5 -38.5 0
      vertex -38.5 -5 2
      vertex -38.5 -5 0
    endloop
  endfacet
  facet normal -1 -0 0
    outer loop
      vertex -38.5 -5 2
      vertex -38.5 -38.5 0
      vertex -38.5 -38.5 2
    endloop
  endfacet
  facet normal 0 -1 0
    outer loop
      vertex 5 -38.5 0
      vertex 38.5 -38.5 2
      vertex 5 -38.5 2
    endloop
  endfacet
  facet normal 0 -1 -0
    outer loop
      vertex 38.5 -38.5 2
      vertex 5 -38.5 0
      vertex 38.5 -38.5 0
    endloop
  endfacet
  facet normal 0 -1 0
    outer loop
      vertex -38.5 -38.5 0
      vertex -7 -38.5 2
      vertex -38.5 -38.5 2
    endloop
  endfacet
  facet normal 0 -1 0
    outer loop
      vertex -7 -38.5 2
      vertex -38.5 -38.5 0
      vertex -7 -38.5 0
    endloop
  endfacet
  facet normal 1 -0 0
    outer loop
      vertex 38.5 -38.5 2
      vertex 38.5 -7 0
      vertex 38.5 -7 2
    endloop
  endfacet
  facet normal 1 0 0
    outer loop
      vertex 38.5 -7 0
      vertex 38.5 -38.5 2
      vertex 38.5 -38.5 0
    endloop
  endfacet
  facet normal 1 -0 0
    outer loop
      vertex 38.5 5 2
      vertex 38.5 38.5 0
      vertex 38.5 38.5 2
    endloop
  endfacet
  facet normal 1 0 0
    outer loop
      vertex 38.5 38.5 0
      vertex 38.5 5 2
      vertex 38.5 5 0
    endloop
  endfacet
  facet normal 1 -0 0
    outer loop
      vertex -17.5 -17.5 9
      vertex -17.5 17.5 0
      vertex -17.5 17.5 9
    endloop
  endfacet
  facet normal 1 0 0
    outer loop
      vertex -17.5 17.5 0
      vertex -17.5 -17.5 9
      vertex -17.5 -17.5 0
    endloop
  endfacet
  facet normal 0 -1 0
    outer loop
      vertex -17.5 17.5 0
      vertex 17.5 17.5 9
      vertex -17.5 17.5 9
    endloop
  endfacet
  facet normal 0 -1 -0
    outer loop
      vertex 17.5 17.5 9
      vertex -17.5 17.5 0
      vertex 17.5 17.5 0
    endloop
  endfacet
  facet normal -1 0 0
    outer loop
      vertex 17.5 -17.5 0
      vertex 17.5 17.5 9
      vertex 17.5 17.5 0
    endloop
  endfacet
  facet normal -1 -0 0
    outer loop
      vertex 17.5 17.5 9
      vertex 17.5 -17.5 0
      vertex 17.5 -17.5 9
    endloop
  endfacet
  facet normal 0 1 -0
    outer loop
      vertex 17.5 -17.5 0
      vertex -17.5 -17.5 9
      vertex 17.5 -17.5 9
    endloop
  endfacet
  facet normal 0 1 0
    outer loop
      vertex -17.5 -17.5 9
      vertex 17.5 -17.5 0
      vertex -17.5 -17.5 0
    endloop
  endfacet
  facet normal 0 0 1
    outer loop
      vertex -5 35.75 3.5
      vertex -33 33 3.5
      vertex -5 33 3.5
    endloop
  endfacet
  facet normal -0 0 1
    outer loop
      vertex -35.75 35.75 3.5
      vertex -33 33 3.5
      vertex -5 35.75 3.5
    endloop
  endfacet
  facet normal 0 0 1
    outer loop
      vertex -35.75 7 3.5
      vertex -33 33 3.5
      vertex -35.75 35.75 3.5
    endloop
  endfacet
  facet normal 0 0 1
    outer loop
      vertex -33 33 3.5
      vertex -35.75 7 3.5
      vertex -33 7 3.5
    endloop
  endfacet
  facet normal 0 0 1
    outer loop
      vertex 33 -33 3.5
      vertex 35.75 -7 3.5
      vertex 33 -7 3.5
    endloop
  endfacet
  facet normal 0 0 1
    outer loop
      vertex 35.75 -7 3.5
      vertex 33 -33 3.5
      vertex 35.75 -35.75 3.5
    endloop
  endfacet
  facet normal 0 0 1
    outer loop
      vertex 5 -35.75 3.5
      vertex 33 -33 3.5
      vertex 5 -33 3.5
    endloop
  endfacet
  facet normal 0 0 1
    outer loop
      vertex 33 -33 3.5
      vertex 5 -35.75 3.5
      vertex 35.75 -35.75 3.5
    endloop
  endfacet
  facet normal 0 0 1
    outer loop
      vertex 35.75 35.75 3.5
      vertex 33 33 3.5
      vertex 35.75 5 3.5
    endloop
  endfacet
  facet normal -0 0 1
    outer loop
      vertex 7 35.75 3.5
      vertex 33 33 3.5
      vertex 35.75 35.75 3.5
    endloop
  endfacet
  facet normal 0 0 1
    outer loop
      vertex 33 33 3.5
      vertex 7 35.75 3.5
      vertex 7 33 3.5
    endloop
  endfacet
  facet normal 0 0 1
    outer loop
      vertex 35.75 5 3.5
      vertex 33 33 3.5
      vertex 33 5 3.5
    endloop
  endfacet
  facet normal 0 0 1
    outer loop
      vertex -33 -5 3.5
      vertex -35.75 -5 3.5
      vertex -33 -33 3.5
    endloop
  endfacet
  facet normal -0 0 1
    outer loop
      vertex -33 -33 3.5
      vertex -7 -35.75 3.5
      vertex -7 -33 3.5
    endloop
  endfacet
  facet normal 0 0 1
    outer loop
      vertex -33 -33 3.5
      vertex -35.75 -35.75 3.5
      vertex -7 -35.75 3.5
    endloop
  endfacet
  facet normal 0 0 1
    outer loop
      vertex -35.75 -35.75 3.5
      vertex -33 -33 3.5
      vertex -35.75 -5 3.5
    endloop
  endfacet
  facet normal 0 1 -0
    outer loop
      vertex -5 35.75 2
      vertex -35.75 35.75 3.5
      vertex -5 35.75 3.5
    endloop
  endfacet
  facet normal 0 1 0
    outer loop
      vertex -35.75 35.75 3.5
      vertex -5 35.75 2
      vertex -35.75 35.75 2
    endloop
  endfacet
  facet normal 0 1 -0
    outer loop
      vertex 35.75 35.75 2
      vertex 7 35.75 3.5
      vertex 35.75 35.75 3.5
    endloop
  endfacet
  facet normal 0 1 0
    outer loop
      vertex 7 35.75 3.5
      vertex 35.75 35.75 2
      vertex 7 35.75 2
    endloop
  endfacet
  facet normal -1 0 0
    outer loop
      vertex -35.75 7 2
      vertex -35.75 35.75 3.5
      vertex -35.75 35.75 2
    endloop
  endfacet
  facet normal -1 -0 0
    outer loop
      vertex -35.75 35.75 3.5
      vertex -35.75 7 2
      vertex -35.75 7 3.5
    endloop
  endfacet
  facet normal -1 0 0
    outer loop
      vertex -35.75 -35.75 2
      vertex -35.75 -5 3.5
      vertex -35.75 -5 2
    endloop
  endfacet
  facet normal -1 -0 0
    outer loop
      vertex -35.75 -5 3.5
      vertex -35.75 -35.75 2
      vertex -35.75 -35.75 3.5
    endloop
  endfacet
  facet normal 0 -1 0
    outer loop
      vertex 5 -35.75 2
      vertex 35.75 -35.75 3.5
      vertex 5 -35.75 3.5
    endloop
  endfacet
  facet normal 0 -1 -0
    outer loop
      vertex 35.75 -35.75 3.5
      vertex 5 -35.75 2
      vertex 35.75 -35.75 2
    endloop
  endfacet
  facet normal 0 -1 0
    outer loop
      vertex -35.75 -35.75 2
      vertex -7 -35.75 3.5
      vertex -35.75 -35.75 3.5
    endloop
  endfacet
  facet normal 0 -1 -0
    outer loop
      vertex -7 -35.75 3.5
      vertex -35.75 -35.75 2
      vertex -7 -35.75 2
    endloop
  endfacet
  facet normal 1 -0 0
    outer loop
      vertex 35.75 -35.75 3.5
      vertex 35.75 -7 2
      vertex 35.75 -7 3.5
    endloop
  endfacet
  facet normal 1 0 0
    outer loop
      vertex 35.75 -7 2
      vertex 35.75 -35.75 3.5
      vertex 35.75 -35.75 2
    endloop
  endfacet
  facet normal 1 -0 0
    outer loop
      vertex 35.75 5 3.5
      vertex 35.75 35.75 2
      vertex 35.75 35.75 3.5
    endloop
  endfacet
  facet normal 1 0 0
    outer loop
      vertex 35.75 35.75 2
      vertex 35.75 5 3.5
      vertex 35.75 5 2
    endloop
  endfacet
  facet normal 0 0 1
    outer loop
      vertex 33 33 4.5
      vertex 30.25 30.25 4.5
      vertex 33 5 4.5
    endloop
  endfacet
  facet normal -0 0 1
    outer loop
      vertex 7 33 4.5
      vertex 30.25 30.25 4.5
      vertex 33 33 4.5
    endloop
  endfacet
  facet normal 0 0 1
    outer loop
      vertex 30.25 30.25 4.5
      vertex 7 33 4.5
      vertex 7 30.25 4.5
    endloop
  endfacet
  facet normal 0 0 1
    outer loop
      vertex 33 5 4.5
      vertex 30.25 30.25 4.5
      vertex 30.25 5 4.5
    endloop
  endfacet
  facet normal 0 0 1
    outer loop
      vertex -5 33 4.5
      vertex -30.25 30.25 4.5
      vertex -5 30.25 4.5
    endloop
  endfacet
  facet normal -0 0 1
    outer loop
      vertex -33 33 4.5
      vertex -30.25 30.25 4.5
      vertex -5 33 4.5
    endloop
  endfacet
  facet normal 0 0 1
    outer loop
      vertex -33 7 4.5
      vertex -30.25 30.25 4.5
      vertex -33 33 4.5
    endloop
  endfacet
  facet normal 0 0 1
    outer loop
      vertex -30.25 30.25 4.5
      vertex -33 7 4.5
      vertex -30.25 7 4.5
    endloop
  endfacet
  facet normal 0 0 1
    outer loop
      vertex 30.25 -30.25 4.5
      vertex 33 -7 4.5
      vertex 30.25 -7 4.5
    endloop
  endfacet
  facet normal 0 0 1
    outer loop
      vertex 33 -7 4.5
      vertex 30.25 -30.25 4.5
      vertex 33 -33 4.5
    endloop
  endfacet
  facet normal 0 0 1
    outer loop
      vertex 5 -33 4.5
      vertex 30.25 -30.25 4.5
      vertex 5 -30.25 4.5
    endloop
  endfacet
  facet normal 0 0 1
    outer loop
      vertex 30.25 -30.25 4.5
      vertex 5 -33 4.5
      vertex 33 -33 4.5
    endloop
  endfacet
  facet normal 0 0 1
    outer loop
      vertex -30.25 -5 4.5
      vertex -33 -5 4.5
      vertex -30.25 -30.25 4.5
    endloop
  endfacet
  facet normal -0 0 1
    outer loop
      vertex -30.25 -30.25 4.5
      vertex -7 -33 4.5
      vertex -7 -30.25 4.5
    endloop
  endfacet
  facet normal 0 0 1
    outer loop
      vertex -30.25 -30.25 4.5
      vertex -33 -33 4.5
      vertex -7 -33 4.5
    endloop
  endfacet
  facet normal 0 0 1
    outer loop
      vertex -33 -33 4.5
      vertex -30.25 -30.25 4.5
      vertex -33 -5 4.5
    endloop
  endfacet
  facet normal 0 1 -0
    outer loop
      vertex -5 33 3.5
      vertex -33 33 4.5
      vertex -5 33 4.5
    endloop
  endfacet
  facet normal 0 1 0
    outer loop
      vertex -33 33 4.5
      vertex -5 33 3.5
      vertex -33 33 3.5
    endloop
  endfacet
  facet normal 0 1 -0
    outer loop
      vertex 33 33 3.5
      vertex 7 33 4.5
      vertex 33 33 4.5
    endloop
  endfacet
  facet normal 0 1 0
    outer loop
      vertex 7 33 4.5
      vertex 33 33 3.5
      vertex 7 33 3.5
    endloop
  endfacet
  facet normal -1 0 0
    outer loop
      vertex -33 7 3.5
      vertex -33 33 4.5
      vertex -33 33 3.5
    endloop
  endfacet
  facet normal -1 -0 0
    outer loop
      vertex -33 33 4.5
      vertex -33 7 3.5
      vertex -33 7 4.5
    endloop
  endfacet
  facet normal -1 0 0
    outer loop
      vertex -33 -33 3.5
      vertex -33 -5 4.5
      vertex -33 -5 3.5
    endloop
  endfacet
  facet normal -1 -0 0
    outer loop
      vertex -33 -5 4.5
      vertex -33 -33 3.5
      vertex -33 -33 4.5
    endloop
  endfacet
  facet normal 0 -1 0
    outer loop
      vertex 5 -33 3.5
      vertex 33 -33 4.5
      vertex 5 -33 4.5
    endloop
  endfacet
  facet normal 0 -1 -0
    outer loop
      vertex 33 -33 4.5
      vertex 5 -33 3.5
      vertex 33 -33 3.5
    endloop
  endfacet
  facet normal 0 -1 0
    outer loop
      vertex -33 -33 3.5
      vertex -7 -33 4.5
      vertex -33 -33 4.5
    endloop
  endfacet
  facet normal 0 -1 -0
    outer loop
      vertex -7 -33 4.5
      vertex -33 -33 3.5
      vertex -7 -33 3.5
    endloop
  endfacet
  facet normal 1 -0 0
    outer loop
      vertex 33 -33 4.5
      vertex 33 -7 3.5
      vertex 33 -7 4.5
    endloop
  endfacet
  facet normal 1 0 0
    outer loop
      vertex 33 -7 3.5
      vertex 33 -33 4.5
      vertex 33 -33 3.5
    endloop
  endfacet
  facet normal 1 -0 0
    outer loop
      vertex 33 5 4.5
      vertex 33 33 3.5
      vertex 33 33 4.5
    endloop
  endfacet
  facet normal 1 0 0
    outer loop
      vertex 33 33 3.5
      vertex 33 5 4.5
      vertex 33 5 3.5
    endloop
  endfacet
  facet normal 0 1 -0
    outer loop
      vertex 5 30.25 7.2
      vertex -3 30.25 7.91667
      vertex 5 30.25 7.91667
    endloop
  endfacet
  facet normal 0 1 0
    outer loop
      vertex -3 30.25 7.91667
      vertex 5 30.25 7.2
      vertex -3 30.25 7.2
    endloop
  endfacet
  facet normal 0 1 0
    outer loop
      vertex 30.25 30.25 8
      vertex 7 30.25 7.91667
      vertex -30.25 30.25 8
    endloop
  endfacet
  facet normal 0 1 0
    outer loop
      vertex 30.25 30.25 8
      vertex 7 30.25 7.83334
      vertex 7 30.25 7.91667
    endloop
  endfacet
  facet normal 0 1 -0
    outer loop
      vertex 30.25 30.25 4.5
      vertex 7 30.25 7.83334
      vertex 30.25 30.25 8
    endloop
  endfacet
  facet normal 0 1 0
    outer loop
      vertex 7 30.25 7.83334
      vertex 30.25 30.25 4.5
      vertex 7 30.25 4.5
    endloop
  endfacet
  facet normal 0 1 -0
    outer loop
      vertex 5 30.25 7.91667
      vertex -30.25 30.25 8
      vertex 7 30.25 7.91667
    endloop
  endfacet
  facet normal 0 1 -0
    outer loop
      vertex -3 30.25 7.91667
      vertex -30.25 30.25 8
      vertex 5 30.25 7.91667
    endloop
  endfacet
  facet normal 0 1 -0
    outer loop
      vertex -5 30.25 7.91667
      vertex -30.25 30.25 8
      vertex -3 30.25 7.91667
    endloop
  endfacet
  facet normal 0 1 -0
    outer loop
      vertex -5 30.25 4.5
      vertex -30.25 30.25 8
      vertex -5 30.25 7.91667
    endloop
  endfacet
  facet normal 0 1 0
    outer loop
      vertex -30.25 30.25 8
      vertex -5 30.25 4.5
      vertex -30.25 30.25 4.5
    endloop
  endfacet
  facet normal -1 0 0
    outer loop
      vertex -30.25 -5 4.5
      vertex -30.25 -30.25 4.5
      vertex -30.25 -5 7.91667
    endloop
  endfacet
  facet normal -1 0 0
    outer loop
      vertex -30.25 5 7.2
      vertex -30.25 -3 7.2
      vertex -30.25 5 7.91667
    endloop
  endfacet
  facet normal -1 0 0
    outer loop
      vertex -30.25 7 4.5
      vertex -30.25 30.25 8
      vertex -30.25 30.25 4.5
    endloop
  endfacet
  facet normal -1 0 0
    outer loop
      vertex -30.25 7 7.83333
      vertex -30.25 30.25 8
      vertex -30.25 7 4.5
    endloop
  endfacet
  facet normal -1 0 0
    outer loop
      vertex -30.25 7 7.91667
      vertex -30.25 30.25 8
      vertex -30.25 7 7.83333
    endloop
  endfacet
  facet normal -1 0 0
    outer loop
      vertex -30.25 5 7.91667
      vertex -30.25 30.25 8
      vertex -30.25 7 7.91667
    endloop
  endfacet
  facet normal -1 0 0
    outer loop
      vertex -30.25 -3 7.91667
      vertex -30.25 5 7.91667
      vertex -30.25 -3 7.2
    endloop
  endfacet
  facet normal -1 0 0
    outer loop
      vertex -30.25 -3 7.91667
      vertex -30.25 30.25 8
      vertex -30.25 5 7.91667
    endloop
  endfacet
  facet normal -1 0 0
    outer loop
      vertex -30.25 -5 7.91667
      vertex -30.25 30.25 8
      vertex -30.25 -3 7.91667
    endloop
  endfacet
  facet normal -1 0 0
    outer loop
      vertex -30.25 -5 7.91667
      vertex -30.25 -30.25 8
      vertex -30.25 30.25 8
    endloop
  endfacet
  facet normal -1 0 0
    outer loop
      vertex -30.25 -30.25 8
      vertex -30.25 -5 7.91667
      vertex -30.25 -30.25 4.5
    endloop
  endfacet
  facet normal 0 -1 0
    outer loop
      vertex -5 -30.25 7.2
      vertex 3 -30.25 7.91667
      vertex -5 -30.25 7.91667
    endloop
  endfacet
  facet normal 0 -1 -0
    outer loop
      vertex 3 -30.25 7.91667
      vertex -5 -30.25 7.2
      vertex 3 -30.25 7.2
    endloop
  endfacet
  facet normal 0 -1 0
    outer loop
      vertex -30.25 -30.25 8
      vertex -7 -30.25 7.91667
      vertex 30.25 -30.25 8
    endloop
  endfacet
  facet normal 0 -1 0
    outer loop
      vertex -30.25 -30.25 8
      vertex -7 -30.25 7.83333
      vertex -7 -30.25 7.91667
    endloop
  endfacet
  facet normal 0 -1 0
    outer loop
      vertex -30.25 -30.25 4.5
      vertex -7 -30.25 7.83333
      vertex -30.25 -30.25 8
    endloop
  endfacet
  facet normal 0 -1 0
    outer loop
      vertex -7 -30.25 7.83333
      vertex -30.25 -30.25 4.5
      vertex -7 -30.25 4.5
    endloop
  endfacet
  facet normal 0 -1 0
    outer loop
      vertex -5 -30.25 7.91667
      vertex 30.25 -30.25 8
      vertex -7 -30.25 7.91667
    endloop
  endfacet
  facet normal 0 -1 0
    outer loop
      vertex 3 -30.25 7.91667
      vertex 30.25 -30.25 8
      vertex -5 -30.25 7.91667
    endloop
  endfacet
  facet normal 0 -1 0
    outer loop
      vertex 5 -30.25 7.91667
      vertex 30.25 -30.25 8
      vertex 3 -30.25 7.91667
    endloop
  endfacet
  facet normal 0 -1 0
    outer loop
      vertex 5 -30.25 4.5
      vertex 30.25 -30.25 8
      vertex 5 -30.25 7.91667
    endloop
  endfacet
  facet normal 0 -1 -0
    outer loop
      vertex 30.25 -30.25 8
      vertex 5 -30.25 4.5
      vertex 30.25 -30.25 4.5
    endloop
  endfacet
  facet normal 1 0 0
    outer loop
      vertex 30.25 30.25 8
      vertex 30.25 5 7.91667
      vertex 30.25 30.25 4.5
    endloop
  endfacet
  facet normal 1 0 0
    outer loop
      vertex 30.25 30.25 8
      vertex 30.25 3 7.91667
      vertex 30.25 5 7.91667
    endloop
  endfacet
  facet normal 1 0 0
    outer loop
      vertex 30.25 3 7.91667
      vertex 30.25 -5 7.91667
      vertex 30.25 3 7.2
    endloop
  endfacet
  facet normal 1 0 0
    outer loop
      vertex 30.25 30.25 8
      vertex 30.25 -5 7.91667
      vertex 30.25 3 7.91667
    endloop
  endfacet
  facet normal 1 0 0
    outer loop
      vertex 30.25 30.25 8
      vertex 30.25 -7 7.91667
      vertex 30.25 -5 7.91667
    endloop
  endfacet
  facet normal 1 0 0
    outer loop
      vertex 30.25 -30.25 8
      vertex 30.25 -7 7.83334
      vertex 30.25 -7 7.91667
    endloop
  endfacet
  facet normal 1 -0 0
    outer loop
      vertex 30.25 -30.25 8
      vertex 30.25 -7 7.91667
      vertex 30.25 30.25 8
    endloop
  endfacet
  facet normal 1 0 0
    outer loop
      vertex 30.25 -7 7.83334
      vertex 30.25 -30.25 8
      vertex 30.25 -7 4.5
    endloop
  endfacet
  facet normal 1 0 0
    outer loop
      vertex 30.25 -7 4.5
      vertex 30.25 -30.25 8
      vertex 30.25 -30.25 4.5
    endloop
  endfacet
  facet normal 1 0 0
    outer loop
      vertex 30.25 30.25 4.5
      vertex 30.25 5 7.91667
      vertex 30.25 5 4.5
    endloop
  endfacet
  facet normal 1 0 0
    outer loop
      vertex 30.25 3 7.2
      vertex 30.25 -5 7.91667
      vertex 30.25 -5 7.2
    endloop
  endfacet
  facet normal 0 0 1
    outer loop
      vertex 30.25 30.25 8
      vertex 27.5 27.5 8
      vertex 30.25 -30.25 8
    endloop
  endfacet
  facet normal 0 0 1
    outer loop
      vertex 30.25 30.25 8
      vertex -27.5 27.5 8
      vertex 27.5 27.5 8
    endloop
  endfacet
  facet normal 0 0 1
    outer loop
      vertex -27.5 27.5 8
      vertex -30.25 30.25 8
      vertex -27.5 -27.5 8
    endloop
  endfacet
  facet normal -0 0 1
    outer loop
      vertex -30.25 30.25 8
      vertex -27.5 27.5 8
      vertex 30.25 30.25 8
    endloop
  endfacet
  facet normal -0 0 1
    outer loop
      vertex 27.5 -27.5 8
      vertex 30.25 -30.25 8
      vertex 27.5 27.5 8
    endloop
  endfacet
  facet normal -0 0 1
    outer loop
      vertex -27.5 -27.5 8
      vertex 30.25 -30.25 8
      vertex 27.5 -27.5 8
    endloop
  endfacet
  facet normal 0 0 1
    outer loop
      vertex -27.5 -27.5 8
      vertex -30.25 -30.25 8
      vertex 30.25 -30.25 8
    endloop
  endfacet
  facet normal 0 0 1
    outer loop
      vertex -30.25 -30.25 8
      vertex -27.5 -27.5 8
      vertex -30.25 30.25 8
    endloop
  endfacet
  facet normal 0 0 1
    outer loop
      vertex 27.5 27.5 9
      vertex 17.5 17.5 9
      vertex 27.5 -27.5 9
    endloop
  endfacet
  facet normal 0 0 1
    outer loop
      vertex 27.5 27.5 9
      vertex -17.5 17.5 9
      vertex 17.5 17.5 9
    endloop
  endfacet
  facet normal 0 0 1
    outer loop
      vertex -17.5 17.5 9
      vertex -27.5 27.5 9
      vertex -17.5 -17.5 9
    endloop
  endfacet
  facet normal -0 0 1
    outer loop
      vertex -27.5 27.5 9
      vertex -17.5 17.5 9
      vertex 27.5 27.5 9
    endloop
  endfacet
  facet normal -0 0 1
    outer loop
      vertex 17.5 -17.5 9
      vertex 27.5 -27.5 9
      vertex 17.5 17.5 9
    endloop
  endfacet
  facet normal -0 0 1
    outer loop
      vertex -17.5 -17.5 9
      vertex 27.5 -27.5 9
      vertex 17.5 -17.5 9
    endloop
  endfacet
  facet normal 0 0 1
    outer loop
      vertex -17.5 -17.5 9
      vertex -27.5 -27.5 9
      vertex 27.5 -27.5 9
    endloop
  endfacet
  facet normal 0 0 1
    outer loop
      vertex -27.5 -27.5 9
      vertex -17.5 -17.5 9
      vertex -27.5 27.5 9
    endloop
  endfacet
  facet normal 0 1 -0
    outer loop
      vertex 27.5 27.5 8
      vertex -27.5 27.5 9
      vertex 27.5 27.5 9
    endloop
  endfacet
  facet normal 0 1 0
    outer loop
      vertex -27.5 27.5 9
      vertex 27.5 27.5 8
      vertex -27.5 27.5 8
    endloop
  endfacet
  facet normal -1 0 0
    outer loop
      vertex -27.5 -27.5 8
      vertex -27.5 27.5 9
      vertex -27.5 27.5 8
    endloop
  endfacet
  facet normal -1 -0 0
    outer loop
      vertex -27.5 27.5 9
      vertex -27.5 -27.5 8
      vertex -27.5 -27.5 9
    endloop
  endfacet
  facet normal 0 -1 0
    outer loop
      vertex -27.5 -27.5 8
      vertex 27.5 -27.5 9
      vertex -27.5 -27.5 9
    endloop
  endfacet
  facet normal 0 -1 -0
    outer loop
      vertex 27.5 -27.5 9
      vertex -27.5 -27.5 8
      vertex 27.5 -27.5 8
    endloop
  endfacet
  facet normal 1 -0 0
    outer loop
      vertex 27.5 -27.5 9
      vertex 27.5 27.5 8
      vertex 27.5 27.5 9
    endloop
  endfacet
  facet normal 1 0 0
    outer loop
      vertex 27.5 27.5 8
      vertex 27.5 -27.5 9
      vertex 27.5 -27.5 8
    endloop
  endfacet
endsolid OpenSCAD_Model
